<?xml version="1.0" standalone="no"?>
<!DOCTYPE svg PUBLIC "-//W3C//DTD SVG 20010904//EN"
 "http://www.w3.org/TR/2001/REC-SVG-20010904/DTD/svg10.dtd">
<svg version="1.0" xmlns="http://www.w3.org/2000/svg"
 width="512.000000pt" height="512.000000pt" viewBox="0 0 512.000000 512.000000"
 preserveAspectRatio="xMidYMid meet">
<metadata>
Created by potrace 1.16, written by Peter Selinger 2001-2019
</metadata>
<g transform="translate(0.000000,512.000000) scale(0.100000,-0.100000)"
fill="#000000" stroke="none">
<path d="M2390 4931 c-229 -73 -396 -259 -484 -539 -14 -46 -26 -93 -26 -105
0 -45 -14 -49 -56 -16 -52 43 -179 102 -289 135 -76 23 -109 27 -215 27 -92 1
-141 -4 -184 -17 -199 -59 -346 -199 -412 -391 -25 -71 -28 -95 -28 -210 -1
-96 4 -148 18 -200 27 -98 82 -228 127 -294 43 -64 48 -58 -64 -84 -173 -42
-372 -156 -459 -263 -57 -70 -110 -168 -132 -243 -21 -72 -21 -247 -1 -326 63
-239 320 -456 610 -515 93 -19 90 -16 61 -53 -71 -87 -148 -287 -165 -427 -13
-107 -1 -232 32 -322 70 -193 241 -340 447 -384 183 -39 472 26 632 143 50 36
68 36 68 1 0 -40 42 -172 80 -255 98 -210 262 -357 455 -408 75 -19 224 -19
298 0 185 48 350 191 450 390 30 60 87 236 87 268 0 13 3 27 6 30 8 7 42 -9
62 -30 8 -8 42 -28 76 -45 149 -75 279 -108 429 -108 185 0 307 50 432 175
214 214 243 509 84 840 -22 44 -50 95 -64 114 -31 42 -31 51 -2 51 12 0 48 7
80 15 278 72 487 240 575 462 24 62 26 81 27 203 0 116 -3 145 -23 202 -74
213 -263 378 -530 462 -46 14 -93 26 -105 26 -45 0 -49 14 -18 54 37 47 94
165 128 265 20 60 26 103 30 203 7 157 -5 225 -58 335 -43 91 -123 179 -214
237 -163 105 -393 124 -610 51 -79 -27 -213 -92 -246 -120 -17 -14 -34 -25
-38 -25 -5 0 -11 22 -15 49 -8 63 -55 200 -94 276 -93 182 -259 326 -427 370
-83 21 -263 19 -335 -4z m342 -60 c233 -75 396 -295 467 -631 11 -53 21 -76
32 -78 9 -2 45 17 80 41 147 103 303 157 464 164 185 8 314 -36 431 -149 113
-108 167 -244 166 -418 -1 -169 -55 -330 -166 -494 -26 -39 -45 -76 -44 -84 2
-10 39 -23 113 -39 182 -40 330 -113 435 -213 240 -230 247 -572 17 -808 -107
-110 -245 -181 -449 -231 -59 -15 -112 -31 -118 -37 -6 -6 6 -33 37 -79 138
-206 198 -442 159 -625 -44 -206 -169 -350 -362 -416 -69 -24 -93 -28 -189
-26 -177 2 -338 56 -505 167 -38 26 -76 45 -83 42 -8 -3 -21 -41 -31 -93 -44
-219 -155 -419 -290 -520 -73 -55 -94 -66 -171 -92 -89 -29 -152 -35 -239 -23
-281 39 -490 276 -561 634 -10 48 -24 92 -31 98 -10 8 -32 -2 -90 -42 -231
-156 -480 -204 -692 -133 -168 56 -279 167 -338 341 -23 66 -27 95 -28 188 0
74 6 133 18 180 23 90 94 241 153 327 25 37 43 73 40 81 -3 8 -33 19 -69 26
-175 34 -342 106 -450 195 -165 137 -251 370 -204 556 66 263 279 439 620 514
76 16 102 26 104 38 2 10 -15 44 -37 77 -189 278 -222 584 -88 813 98 167 320
273 533 254 143 -13 322 -81 451 -171 36 -25 73 -45 81 -43 12 2 21 28 33 88
68 335 257 572 505 635 80 20 210 14 296 -14z"/>
<path d="M2463 4672 c-250 -89 -378 -418 -344 -886 6 -83 14 -162 17 -176 l6
-25 -22 25 c-11 14 -58 70 -103 124 -236 285 -516 449 -737 434 -188 -14 -320
-161 -320 -358 0 -125 58 -276 159 -415 62 -86 240 -266 338 -343 39 -31 70
-58 69 -60 -2 -1 -56 3 -120 9 -176 17 -440 7 -546 -21 -310 -80 -481 -290
-412 -507 48 -153 189 -264 407 -324 99 -27 403 -38 565 -20 56 6 104 10 106
9 1 -2 -40 -37 -93 -78 -311 -246 -500 -551 -479 -775 9 -101 33 -153 100
-221 70 -69 122 -92 231 -101 131 -10 302 52 450 164 88 67 263 242 339 341
27 34 51 60 53 58 3 -2 0 -46 -7 -98 -15 -120 -14 -372 0 -468 40 -254 167
-454 325 -507 110 -37 236 -11 334 68 83 66 160 207 197 360 22 92 31 423 15
554 -6 49 -9 90 -7 92 1 2 33 -35 71 -82 84 -108 233 -256 322 -324 94 -71
233 -138 329 -158 146 -29 280 10 367 108 138 153 106 416 -82 668 -75 100
-216 243 -325 330 l-80 63 95 -9 c52 -4 182 -7 289 -7 175 1 205 4 292 27 300
79 467 277 414 488 -68 267 -405 405 -895 369 -86 -6 -164 -13 -173 -16 -32
-9 -19 4 65 70 123 96 312 297 376 400 77 124 114 237 114 351 0 78 -3 99 -28
152 -32 73 -102 144 -173 175 -64 29 -187 35 -272 14 -87 -22 -229 -93 -313
-156 -89 -67 -246 -224 -326 -325 l-64 -80 6 55 c4 30 10 139 13 241 8 214 -7
335 -58 476 -34 93 -108 205 -166 251 -92 74 -220 99 -319 64z m236 -68 c72
-38 134 -111 181 -208 74 -156 99 -342 80 -595 -21 -277 -24 -288 -117 -427
l-81 -121 -64 13 c-80 17 -195 17 -275 1 l-63 -14 -79 121 c-43 67 -82 130
-85 142 -4 11 -13 83 -21 160 -50 472 30 778 240 922 75 51 197 54 284 6z
m-1272 -498 c252 -67 523 -314 795 -724 48 -74 88 -137 88 -141 0 -4 -15 -12
-34 -19 -49 -18 -150 -86 -208 -140 -58 -54 -124 -143 -162 -219 l-26 -53 -55
35 c-447 286 -722 574 -799 834 -46 157 1 324 110 392 82 50 186 63 291 35z
m2523 -20 c177 -93 218 -283 110 -514 -78 -166 -262 -368 -496 -543 -135 -101
-322 -225 -327 -218 -2 2 -18 34 -36 70 -65 132 -174 242 -316 320 l-74 40 26
42 c116 187 262 376 387 505 153 158 288 252 428 298 61 20 89 24 168 21 68
-2 105 -8 130 -21z m-1172 -890 c282 -105 451 -346 452 -642 1 -363 -304 -664
-669 -664 -309 1 -569 202 -652 507 -28 102 -24 274 10 373 68 200 228 362
418 423 112 37 106 36 243 33 107 -3 136 -7 198 -30z m-1268 -251 l105 -15
126 -84 127 -85 -15 -63 c-14 -61 -14 -170 2 -298 l5 -45 -121 -78 -122 -78
-111 -16 c-157 -22 -496 -23 -592 0 -262 60 -418 191 -432 363 -16 210 196
375 535 414 103 12 361 4 493 -15z m2640 1 c223 -34 389 -130 462 -268 32 -61
33 -184 0 -245 -62 -118 -187 -201 -373 -249 -133 -34 -424 -35 -654 -3 -76
11 -86 15 -208 96 -98 66 -127 89 -122 102 20 51 28 175 18 258 -6 49 -14 95
-18 104 -4 12 25 36 118 98 108 71 132 83 189 92 193 30 444 36 588 15z
m-2233 -704 c61 -129 186 -255 318 -322 36 -18 65 -38 65 -45 0 -13 -131 -208
-211 -313 -135 -178 -288 -333 -416 -420 -247 -167 -492 -177 -609 -23 -160
210 -21 544 361 870 133 113 423 320 450 320 6 0 24 -30 42 -67z m1452 -16
c179 -119 319 -232 446 -360 191 -192 284 -360 292 -531 4 -75 1 -99 -16 -145
-58 -155 -218 -222 -406 -171 -255 70 -517 311 -787 720 -48 74 -88 137 -88
140 0 3 33 23 73 43 141 73 253 187 323 331 16 31 30 57 33 57 2 0 61 -38 130
-84z m-819 -386 c30 0 82 5 115 10 33 6 68 12 77 13 11 1 42 -37 97 -121 l81
-123 14 -112 c34 -259 30 -482 -10 -642 -22 -88 -87 -215 -137 -271 -26 -28
-71 -63 -104 -79 -49 -25 -70 -30 -133 -30 -94 0 -135 19 -213 96 -71 72 -128
185 -159 319 -28 125 -30 401 -4 594 l18 129 70 106 c101 151 86 140 166 125
37 -7 92 -13 122 -14z"/>
<path d="M2292 2860 c-31 -29 -42 -61 -42 -123 0 -91 49 -142 113 -118 66 25
91 152 44 222 -29 43 -80 51 -115 19z"/>
<path d="M2771 2839 c-46 -43 -63 -117 -40 -176 47 -126 179 -76 179 67 0 43
-22 97 -49 117 -25 19 -65 15 -90 -8z"/>
<path d="M2284 2483 c-23 -75 -34 -85 -99 -95 -12 -2 -21 -12 -23 -26 -3 -19
1 -22 35 -22 21 0 45 4 53 10 10 6 26 -2 58 -32 138 -127 365 -138 499 -23 40
34 41 34 72 19 42 -21 75 -15 79 14 3 16 -2 22 -17 22 -52 0 -91 41 -91 95 0
18 -5 25 -20 25 -24 0 -35 -36 -21 -72 9 -24 6 -30 -26 -59 -61 -53 -117 -73
-208 -74 -71 0 -88 4 -145 32 -36 18 -78 46 -94 62 -28 29 -29 32 -17 71 9 32
10 45 0 56 -16 19 -28 18 -35 -3z"/>
</g>
</svg>
